<svg width="280" height="140" viewBox="0 0 280 140" fill="none" xmlns="http://www.w3.org/2000/svg">
<rect width="280" height="140" fill="white"/>
<rect width="280" height="140" fill="#F9FAFB"/>
<g filter="url(#filter0_dd)">
<path d="M98 44C98 41.7909 99.7909 40 102 40H178C180.209 40 182 41.7909 182 44V95C182 97.2091 180.209 99 178 99H102C99.7909 99 98 97.2091 98 95V44Z" fill="white"/>
<path d="M102 39.5C99.5147 39.5 97.5 41.5147 97.5 44V95C97.5 97.4853 99.5147 99.5 102 99.5H178C180.485 99.5 182.5 97.4853 182.5 95V44C182.5 41.5147 180.485 39.5 178 39.5H102Z" stroke="black" stroke-opacity="0.04"/>
</g>
<rect x="98" y="55" width="84" height="14" fill="#F9FAFB"/>
<rect x="106" y="46" width="36" height="2" rx="1" fill="#9FA6B2"/>
<rect x="106" y="61" width="44" height="2" rx="1" fill="#9FA6B2"/>
<rect x="106" y="76" width="28" height="2" rx="1" fill="#9FA6B2"/>
<rect x="106" y="91" width="36" height="2" rx="1" fill="#9FA6B2"/>
<rect x="98" y="54" width="84" height="1" fill="#E5E7EB"/>
<rect x="98" y="69" width="84" height="1" fill="#E5E7EB"/>
<rect x="98" y="84" width="84" height="1" fill="#E5E7EB"/>
<defs>
<filter id="filter0_dd" x="92" y="37" width="96" height="71" filterUnits="userSpaceOnUse" color-interpolation-filters="sRGB">
<feFlood flood-opacity="0" result="BackgroundImageFix"/>
<feColorMatrix in="SourceAlpha" type="matrix" values="0 0 0 0 0 0 0 0 0 0 0 0 0 0 0 0 0 0 127 0"/>
<feOffset dy="3"/>
<feGaussianBlur stdDeviation="2.5"/>
<feColorMatrix type="matrix" values="0 0 0 0 0 0 0 0 0 0 0 0 0 0 0 0 0 0 0.04 0"/>
<feBlend mode="normal" in2="BackgroundImageFix" result="effect1_dropShadow"/>
<feColorMatrix in="SourceAlpha" type="matrix" values="0 0 0 0 0 0 0 0 0 0 0 0 0 0 0 0 0 0 127 0"/>
<feOffset dy="1"/>
<feGaussianBlur stdDeviation="1"/>
<feColorMatrix type="matrix" values="0 0 0 0 0 0 0 0 0 0 0 0 0 0 0 0 0 0 0.03 0"/>
<feBlend mode="normal" in2="effect1_dropShadow" result="effect2_dropShadow"/>
<feBlend mode="normal" in="SourceGraphic" in2="effect2_dropShadow" result="shape"/>
</filter>
</defs>
</svg>
